<svg width="43" height="44" viewBox="0 0 43 44" fill="none" xmlns="http://www.w3.org/2000/svg">
<g clip-path="url(#clip0_66_235)">
<path fill-rule="evenodd" clip-rule="evenodd" d="M7.51367 7.66579C7.51367 6.71543 7.88242 5.804 8.5388 5.13199C9.19518 4.45999 10.0854 4.08246 11.0137 4.08246H32.0137C32.9419 4.08246 33.8322 4.45999 34.4885 5.13199C35.1449 5.804 35.5137 6.71543 35.5137 7.66579V36.3325C35.5137 37.2828 35.1449 38.1943 34.4885 38.8663C33.8322 39.5383 32.9419 39.9158 32.0137 39.9158H11.0137C10.0854 39.9158 9.19518 39.5383 8.5388 38.8663C7.88242 38.1943 7.51367 37.2828 7.51367 36.3325V7.66579ZM32.0137 7.66579H11.0137V36.3325H32.0137V7.66579ZM20.7227 12.6162C21.0507 12.9522 21.235 13.4078 21.235 13.8829C21.235 14.358 21.0507 14.8136 20.7227 15.1496L17.3189 18.6308C16.9087 19.0504 16.3526 19.2861 15.7728 19.2861C15.193 19.2861 14.6369 19.0504 14.2267 18.6308L12.6797 17.047C12.5125 16.8817 12.3792 16.684 12.2875 16.4654C12.1958 16.2468 12.1475 16.0117 12.1455 15.7738C12.1435 15.5359 12.1877 15.3 12.2757 15.0798C12.3637 14.8596 12.4937 14.6596 12.658 14.4913C12.8223 14.3231 13.0177 14.1901 13.2328 14.1C13.4478 14.0099 13.6783 13.9646 13.9106 13.9666C14.143 13.9687 14.3726 14.0181 14.5861 14.112C14.7996 14.2059 14.9927 14.3424 15.1542 14.5135L15.7737 15.1478L18.2482 12.6144C18.5763 12.2785 19.0214 12.0898 19.4854 12.0898C19.9495 12.0898 20.3945 12.2803 20.7227 12.6162ZM23.2637 16.6241C23.2637 16.1489 23.448 15.6932 23.7762 15.3572C24.1044 15.0212 24.5495 14.8325 25.0137 14.8325H28.5137C28.9778 14.8325 29.4229 15.0212 29.7511 15.3572C30.0793 15.6932 30.2637 16.1489 30.2637 16.6241C30.2637 17.0993 30.0793 17.555 29.7511 17.891C29.4229 18.227 28.9778 18.4158 28.5137 18.4158H25.0137C24.5495 18.4158 24.1044 18.227 23.7762 17.891C23.448 17.555 23.2637 17.0993 23.2637 16.6241ZM12.7637 24.6866C12.7637 23.9739 13.0402 23.2903 13.5325 22.7863C14.0248 22.2823 14.6925 21.9991 15.3887 21.9991H18.8887C19.5849 21.9991 20.2525 22.2823 20.7448 22.7863C21.2371 23.2903 21.5137 23.9739 21.5137 24.6866V28.27C21.5137 28.9827 21.2371 29.6663 20.7448 30.1703C20.2525 30.6743 19.5849 30.9575 18.8887 30.9575H15.3887C14.6925 30.9575 14.0248 30.6743 13.5325 30.1703C13.0402 29.6663 12.7637 28.9827 12.7637 28.27V24.6866ZM16.2637 25.5825V27.3741H18.0137V25.5825H16.2637ZM23.2637 26.4783C23.2637 26.0031 23.448 25.5474 23.7762 25.2114C24.1044 24.8754 24.5495 24.6866 25.0137 24.6866H28.5137C28.9778 24.6866 29.4229 24.8754 29.7511 25.2114C30.0793 25.5474 30.2637 26.0031 30.2637 26.4783C30.2637 26.9535 30.0793 27.4092 29.7511 27.7452C29.4229 28.0812 28.9778 28.27 28.5137 28.27H25.0137C24.5495 28.27 24.1044 28.0812 23.7762 27.7452C23.448 27.4092 23.2637 26.9535 23.2637 26.4783Z" fill="black"/>
</g>
<defs>
<clipPath id="clip0_66_235">
<rect width="42" height="43" fill="white" transform="translate(0.513672 0.499146)"/>
</clipPath>
</defs>
</svg>
