<svg width="26" height="25" viewBox="0 0 26 25" fill="none" xmlns="http://www.w3.org/2000/svg">
<path d="M0.769231 2.84615H3.53846V5.61538H0.769231V2.84615ZM0.769231 5.61538H3.53846V8.38462H0.769231V5.61538ZM3.53846 0.0769224H6.30769V2.84615H3.53846V0.0769224ZM6.30769 0.0769224H9.07692V2.84615H6.30769V0.0769224ZM9.07692 0.0769224H11.8462V2.84615H9.07692V0.0769224ZM11.8462 0.0769224H14.6154V2.84615H11.8462V0.0769224ZM3.53846 8.38462H6.30769V11.1538H3.53846V8.38462ZM6.30769 8.38462H9.07692V11.1538H6.30769V8.38462ZM11.8462 2.84615H14.6154V5.61538H11.8462V2.84615ZM14.6154 2.84615H17.3846V5.61538H14.6154V2.84615ZM17.3846 2.84615H20.1538V5.61538H17.3846V2.84615ZM14.6154 8.38462H17.3846V11.1538H14.6154V8.38462ZM11.8462 8.38462H14.6154V11.1538H11.8462V8.38462ZM11.8462 11.1538H14.6154V13.9231H11.8462V11.1538ZM14.6154 13.9231H17.3846V16.6923H14.6154V13.9231ZM14.6154 16.6923H17.3846V19.4615H14.6154V16.6923ZM11.8462 16.6923H14.6154V19.4615H11.8462V16.6923ZM9.07692 19.4615H11.8462V22.2308H9.07692V19.4615ZM11.8462 22.2308H14.6154V25H11.8462V22.2308ZM14.6154 22.2308H17.3846V25H14.6154V22.2308ZM17.3846 22.2308H20.1538V25H17.3846V22.2308ZM20.1538 19.4615H22.9231V22.2308H20.1538V19.4615ZM22.9231 0.0769224H25.6923V2.84615H22.9231V0.0769224ZM20.1538 2.84615H22.9231V5.61538H20.1538V2.84615ZM6.30769 22.2308H9.07692V25H6.30769V22.2308Z" fill="black"/>
</svg>
